<?xml version="1.0" encoding="utf-8"?>
<!-- Generator: Adobe Illustrator 23.1.0, SVG Export Plug-In . SVG Version: 6.00 Build 0)  -->
<svg version="1.1" id="Layer_1" xmlns="http://www.w3.org/2000/svg" xmlns:xlink="http://www.w3.org/1999/xlink" x="0px" y="0px"
	 viewBox="0 0 254.81 52.05" style="enable-background:new 0 0 254.81 52.05;" xml:space="preserve">
<style type="text/css">
	.st0{fill:#FFFFFF;}
</style>
<path class="st0" d="M200.44,33.29c0.59,0,1.09,0.2,1.48,0.6c0.4,0.4,0.6,0.9,0.6,1.5c0,0.6-0.2,1.1-0.6,1.5
	c-0.4,0.4-0.89,0.6-1.48,0.6c-0.59,0-1.09-0.2-1.49-0.6c-0.4-0.4-0.6-0.9-0.6-1.5c0-0.6,0.2-1.1,0.6-1.5
	C199.35,33.49,199.85,33.29,200.44,33.29"/>
<path class="st0" d="M21.7,22.82h-9.19L7.86,34.92c-0.32,0.87-0.49,1.4-0.49,1.61c0,0.48,0.35,0.72,1.04,0.72v0.32H3.76v-0.32
	c0.62,0,1.15-0.16,1.57-0.47c0.43-0.31,0.89-1.12,1.4-2.42L18.01,5.06h0.57L29.7,33.35c0,0.14,0.28,0.83,0.85,2.06
	c0.57,1.22,1.43,1.84,2.6,1.84v0.32h-7.27v-0.32c0.66,0,0.99-0.27,0.99-0.8c0-0.36-0.16-0.94-0.49-1.74
	c-0.06-0.06-0.11-0.15-0.15-0.28c-0.03-0.15-0.05-0.22-0.06-0.22L21.7,22.82z M12.86,21.94h8.45l-4.25-10.92L12.86,21.94z"/>
<path class="st0" d="M35.36,5.9V5.57h8.84c2.24,0,3.86,0.05,4.86,0.15c1,0.1,2.02,0.44,3.07,1.01c1.05,0.57,1.84,1.35,2.38,2.33
	c0.53,0.98,0.8,2.18,0.8,3.6c0,1.63-0.48,3.17-1.43,4.64c-0.95,1.47-2.3,2.71-4.04,3.73l2.2,3.48c0.48,0.87,1.75,2.77,3.82,5.72
	c2.07,2.94,3.66,4.73,4.79,5.37c1.13,0.64,2.22,0.96,3.27,0.96c1.04,0,2.24-0.4,3.59-1.21l0.13,0.43c-1.69,1.41-3.88,2.12-6.58,2.12
	c-1.8,0-3.35-0.55-4.64-1.64c-1.29-1.1-3.55-4.11-6.77-9.03l-0.04-0.09l-3.13-4.95l-2.77,0.09h-2.52v12.23
	c0,0.98,0.13,1.69,0.38,2.11c0.25,0.43,0.86,0.64,1.83,0.64v0.32h-8.04v-0.32c0.99-0.04,1.6-0.26,1.85-0.65
	c0.25-0.39,0.36-1.19,0.36-2.39V8.79c0-0.83-0.1-1.51-0.31-2.05C37.05,6.19,36.42,5.91,35.36,5.9 M41.19,6.45v14.98h3.26
	c2.57,0,4.47-0.62,5.71-1.86c1.24-1.24,1.86-2.88,1.86-4.9c0-1.97-0.61-3.83-1.83-5.58c-1.22-1.76-3.37-2.63-6.44-2.63H41.19z"/>
<path class="st0" d="M83.16,37.54c0.01,0.04,0.23,0.2,0.63,0.48l3.28,2.39c1.79,1.3,3.45,2.36,4.98,3.18
	c1.53,0.82,3.06,1.44,4.58,1.89c1.52,0.45,3.04,0.67,4.55,0.67c0.58,0,1.39-0.07,2.43-0.22l0.04,0.26c-0.89,0.44-1.95,0.8-3.17,1.09
	c-1.23,0.29-2.15,0.44-2.77,0.44c-2.26,0-5.21-0.85-8.87-2.56c-3.65-1.71-7.1-4.05-10.33-7.04c-4.67,0-8.3-1.51-10.91-4.55
	c-2.6-3.03-3.9-6.44-3.9-10.24c0-2.89,0.67-5.75,2.02-8.58c1.35-2.83,3.34-5.16,5.98-6.99c2.64-1.83,5.79-2.75,9.44-2.75
	c4.38,0,7.96,1.38,10.73,4.13c2.77,2.76,4.15,6.18,4.15,10.28c0,4.1-1.09,7.88-3.29,11.33C90.57,34.22,87.37,36.48,83.16,37.54
	 M81.05,36.41c2.14,0,4.25-0.59,6.34-1.77c2.08-1.18,3.73-2.81,4.92-4.88c1.2-2.07,1.8-4.21,1.8-6.4c0-3.18-0.84-6.05-2.51-8.63
	c-1.67-2.58-3.78-4.55-6.35-5.93c-2.56-1.38-4.88-2.07-6.97-2.07c-3.09,0-5.88,1.2-8.4,3.59c-2.51,2.39-3.77,5.37-3.77,8.92
	c0,4.51,1.53,8.5,4.59,11.97C73.77,34.68,77.22,36.41,81.05,36.41"/>
<path class="st0" d="M126.76,37.57h-5.91v-4.91c-3,3.43-6.59,5.15-10.75,5.15c-3.09,0-5.54-0.89-7.35-2.67
	c-1.81-1.78-2.72-4.24-2.72-7.39V8.57c0-1.16-0.13-1.89-0.41-2.21c-0.27-0.31-0.9-0.47-1.9-0.47V5.57h8.31V5.9
	c-0.87,0-1.49,0.14-1.85,0.43c-0.36,0.28-0.54,0.95-0.54,2v17.54c0,3.67,0.84,6.29,2.51,7.86c1.68,1.57,3.59,2.35,5.73,2.35
	c3.37,0,6.35-1.53,8.96-4.59V9.81c0-1.9-0.16-3.03-0.49-3.38c-0.32-0.36-0.83-0.53-1.52-0.53h-0.29V5.57h8.22V5.9
	c-1.01,0.06-1.65,0.23-1.91,0.52c-0.26,0.29-0.39,0.84-0.39,1.65v26.05c0,1.03,0.05,1.7,0.15,2.02c0.1,0.32,0.3,0.58,0.6,0.79
	c0.31,0.21,0.82,0.31,1.55,0.31V37.57z"/>
<path class="st0" d="M138.61,5.57V5.9c-0.41-0.04-0.87,0.02-1.37,0.2c-0.5,0.17-0.8,0.43-0.89,0.76c-0.09,0.33-0.14,1.12-0.14,2.37
	v24.55c0,1.33,0.05,2.15,0.16,2.44c0.11,0.3,0.31,0.54,0.61,0.74c0.3,0.2,0.85,0.29,1.62,0.29v0.32h-8.35v-0.32
	c1.05,0,1.7-0.21,1.96-0.62c0.26-0.41,0.38-1.35,0.38-2.81V9.5c0-1.52-0.14-2.51-0.43-2.99c-0.28-0.47-0.93-0.67-1.92-0.62V5.57
	H138.61z"/>
<path class="st0" d="M155.6,38.12h-0.4L144.09,9.9c-0.79-1.99-1.43-3.15-1.94-3.49c-0.51-0.34-1.03-0.51-1.56-0.51V5.57h7.18V5.9
	c-0.63-0.04-0.95,0.21-0.95,0.76c0,0.22,0.04,0.45,0.13,0.7l9.7,24.64l9.57-24.62c0.13-0.33,0.19-0.6,0.19-0.8
	c0-0.49-0.38-0.72-1.12-0.67V5.57h4.69V5.9c-0.33,0-0.67,0.05-1.03,0.14c-0.36,0.1-0.73,0.47-1.12,1.12c-0.38,0.65-0.58,1-0.59,1.04
	L155.6,38.12z"/>
<path class="st0" d="M184.02,5.02c4.37,0,7.94,1.37,10.72,4.11c2.78,2.74,4.17,6.16,4.17,10.26c0,5.28-1.61,9.72-4.82,13.33
	c-3.21,3.6-7.48,5.41-12.79,5.41c-4.31,0-7.84-1.45-10.59-4.36c-2.75-2.91-4.12-6.4-4.12-10.47c0-2.75,0.66-5.57,1.99-8.46
	c1.32-2.89,3.32-5.25,5.98-7.08C177.22,5.93,180.37,5.02,184.02,5.02 M183.91,36.41c2.14,0,4.25-0.59,6.33-1.78
	c2.09-1.18,3.73-2.81,4.92-4.89c1.2-2.08,1.8-4.21,1.8-6.41c0-3.11-0.8-5.93-2.42-8.48c-1.61-2.54-3.7-4.53-6.27-5.97
	c-2.57-1.44-4.95-2.16-7.13-2.16c-3.09,0-5.88,1.2-8.4,3.6s-3.77,5.37-3.77,8.93c0,4.55,1.54,8.54,4.61,11.98
	C176.65,34.69,180.09,36.41,183.91,36.41"/>
<path class="st0" d="M205.53,5.92V5.57h8.89c3.16,0,5.45,0.36,6.89,1.09c1.43,0.73,2.48,1.63,3.13,2.71
	c0.66,1.08,0.98,2.51,0.98,4.28c0,2.72-0.91,4.76-2.74,6.12c-1.82,1.37-4.3,2.02-7.42,1.96V21.4c1.98,0,3.59-0.62,4.83-1.86
	c1.24-1.24,1.86-2.88,1.86-4.9c0-1.57-0.3-2.97-0.9-4.19c-0.6-1.22-1.43-2.15-2.52-2.78c-1.08-0.64-2.73-0.95-4.95-0.95h-2.21v27.31
	c0,1.54,0.17,2.46,0.5,2.76c0.33,0.3,0.95,0.44,1.87,0.44v0.35h-8.21v-0.35c1.47,0,2.2-0.69,2.2-2.06V8.72
	c0-1.13-0.14-1.87-0.42-2.24C207.02,6.11,206.43,5.92,205.53,5.92"/>
<path class="st0" d="M251.03,5.57l-1.39,3.7h-0.33c0.05-0.23,0.08-0.53,0.08-0.92c0-0.33-0.11-0.54-0.34-0.63
	c-0.23-0.09-0.59-0.14-1.08-0.14h-7.92v26.48c0,1.09,0.08,1.84,0.25,2.24c0.16,0.4,0.39,0.65,0.67,0.76
	c0.29,0.1,0.74,0.16,1.38,0.16v0.34h-8.12v-0.34c1.02-0.07,1.65-0.27,1.91-0.61c0.25-0.34,0.38-1.04,0.38-2.1V7.59h-7.51
	c-0.76,0-1.25,0.05-1.49,0.14c-0.23,0.09-0.34,0.32-0.34,0.69c0,0.19,0.05,0.47,0.16,0.85h-0.33l-1.48-3.7h0.33
	c0.24,0.48,0.49,0.76,0.73,0.86c0.24,0.1,0.76,0.15,1.55,0.15h20.08c0.79,0,1.37-0.05,1.71-0.15c0.35-0.1,0.61-0.39,0.77-0.86
	H251.03z"/>
</svg>
